<svg xmlns="http://www.w3.org/2000/svg" version="1.1" viewBox="70 0 372 512"  style="fill:azure;">
<path d="M0 0 C10.42357277 8.0485815 18.53548845 17.80246773 21 31 C22.44845239 45.25315183 20.88241546 57.91385656 12.0390625 69.6171875 C3.91799012 79.10732956 -4.59290181 84.9321503 -17 87 C-17 111.75 -17 136.5 -17 162 C-7.06132812 161.93039063 -7.06132812 161.93039063 3.078125 161.859375 C7.31642226 161.83889792 11.55465713 161.81963945 15.79296875 161.8046875 C22.49638797 161.78092564 29.19958533 161.75304822 35.90283203 161.69824219 C41.3169673 161.65426121 46.73086414 161.63075455 52.14516449 161.62049103 C54.19407649 161.61319218 56.24297786 161.59894468 58.29178619 161.57707977 C75.26069308 161.40345829 91.94131217 162.9696231 107.875 169.25 C108.64980713 169.54664551 109.42461426 169.84329102 110.22290039 170.14892578 C140.43537052 182.10926207 164.55613815 206.36111679 177.74609375 235.81640625 C191.10071702 267.01773615 191.55337502 301.60698155 179.43359375 333.203125 C167.45149369 362.76227268 143.31989667 388.22055091 114 401 C110.5943566 402.3702286 107.15818716 403.61732816 103.6875 404.8125 C102.89529053 405.09053467 102.10308105 405.36856934 101.28686523 405.6550293 C86.04013285 410.62038231 70.59019359 411.44449876 54.69921875 411.38818359 C52.73564362 411.39226088 50.77207079 411.39760918 48.8085022 411.40411377 C43.53160982 411.41765573 38.25489567 411.4125436 32.97800064 411.40297651 C27.42112036 411.39531119 21.86425401 411.40244441 16.30737305 411.40713501 C6.98060402 411.41257273 -2.34609343 411.40545328 -11.67285156 411.39111328 C-22.41223926 411.37479066 -33.15145601 411.38008057 -43.89083958 411.3965925 C-53.15851319 411.41026416 -62.42613573 411.4120994 -71.69381618 411.40427649 C-77.20839166 411.39963105 -82.72288714 411.39888796 -88.23745728 411.40888596 C-93.42513544 411.41763657 -98.61259602 411.41138801 -103.80025101 411.39420319 C-105.68906928 411.39028113 -107.57790629 411.39129753 -109.46671677 411.39799118 C-125.27860264 411.44880294 -140.65459977 410.08701403 -155.6875 404.8125 C-156.56196777 404.51206787 -157.43643555 404.21163574 -158.33740234 403.90209961 C-175.16332967 397.91396744 -189.06120142 388.24162084 -202 376 C-202.82371094 375.24074219 -203.64742187 374.48148437 -204.49609375 373.69921875 C-225.29503222 353.87370953 -239.00430045 323.79231191 -240 295 C-240.0515625 293.71351563 -240.103125 292.42703125 -240.15625 291.1015625 C-241.00850789 259.68726661 -231.26925202 230.07175081 -211 206 C-210.28199219 205.12988281 -209.56398438 204.25976562 -208.82421875 203.36328125 C-188.90069356 180.16166234 -160.27646281 165.65735209 -130 162 C-126.82740137 161.86691087 -123.65961341 161.87324987 -120.48461914 161.88647461 C-119.55700775 161.88632858 -118.62939636 161.88618256 -117.67367554 161.8860321 C-114.62747811 161.88672515 -111.58134291 161.89448895 -108.53515625 161.90234375 C-106.41523777 161.90421009 -104.29531885 161.90563297 -102.17539978 161.90663147 C-96.6105733 161.91043962 -91.04577315 161.92025533 -85.48095703 161.93133545 C-78.79616591 161.94339023 -72.11136597 161.94795991 -65.42656708 161.95378876 C-55.28435977 161.96346803 -45.14221017 161.98263651 -35 162 C-35 137.25 -35 112.5 -35 87 C-37.97 86.34 -40.94 85.68 -44 85 C-56.52224408 80.1204401 -65.37104045 69.53896306 -71.09375 57.74609375 C-75.14446273 46.96294642 -74.52740524 32.22754279 -70.328125 21.640625 C-63.1945463 7.45739206 -52.90358313 -1.03213896 -38 -6 C-25.38194565 -9.05892227 -10.92622707 -7.22811945 0 0 Z M-156 257 C-164.18116541 267.22645676 -168.15314897 278.93646949 -167 292 C-164.40931414 305.0002489 -157.83014817 315.30084253 -147 323 C-135.72195694 329.15165985 -123.95618828 331.04767553 -111.34375 328.1640625 C-98.62947746 323.65352296 -89.50795786 315.39046415 -83.68359375 303.2578125 C-79.49886498 292.49708137 -79.1574813 280.1332404 -83.74609375 269.453125 C-89.60841016 257.98416953 -97.87891297 249.72971327 -110 245 C-126.28680311 239.75416628 -144.24132348 244.5629383 -156 257 Z M38 259 C35.61983266 262.18353619 33.73022956 265.42533431 32 269 C31.66097656 269.68320312 31.32195312 270.36640625 30.97265625 271.0703125 C26.9322597 280.86408478 27.83937479 293.48016278 31.62109375 303.19140625 C37.17730455 314.50844751 45.55193485 322.45983354 57.125 327.5 C67.109685 330.70425421 78.95902683 330.43212451 88.58203125 326.25390625 C100.86331987 319.88509584 108.93833091 311.0154167 113.74609375 297.9765625 C117.00120315 286.97653763 114.88433832 275.7182307 109.796875 265.609375 C108.6186458 263.65560254 107.36158011 261.82949154 106 260 C104.948125 258.4840625 104.948125 258.4840625 103.875 256.9375 C96.56723992 248.50014924 84.91472259 243.71949533 74.015625 242.83984375 C59.620331 242.25280162 47.62203041 248.71716013 38 259 Z " fill="#ffffff" transform="translate(282,54)"/>
</svg>