<svg xmlns="http://www.w3.org/2000/svg" viewBox="0 0 512 512" width="32" height="32" style="fill: white;">
  <path d="M400 0H112C83.6 0 64 19.6 64 44.8V467.2C64 492.4 83.6 512 112 512H400C428.4 512 448 492.4 448 467.2V44.8C448 19.6 428.4 0 400 0zM400 467.2H112V44.8H400V467.2zM160 112H352C360.8 112 368 119.2 368 128C368 136.8 360.8 144 352 144H160C151.2 144 144 136.8 144 128C144 119.2 151.2 112 160 112zM160 192H352C360.8 192 368 199.2 368 208C368 216.8 360.8 224 352 224H160C151.2 224 144 216.8 144 208C144 199.2 151.2 192 160 192zM160 272H352C360.8 272 368 279.2 368 288C368 296.8 360.8 304 352 304H160C151.2 304 144 296.8 144 288C144 279.2 151.2 272 160 272zM320 384H192C183.2 384 176 376.8 176 368C176 359.2 183.2 352 192 352H320C328.8 352 336 359.2 336 368C336 376.8 328.8 384 320 384z"/>
</svg>
